<svg xmlns="http://www.w3.org/2000/svg" viewBox="0 0 1600 1000" role="img"><defs><linearGradient id="wall" x1="0" x2="1" y1="0" y2="1"><stop stop-color="#5f7684"/><stop offset="1" stop-color="#2f3231"/></linearGradient></defs><rect width="1600" height="1000" fill="#e7ddc8"/><rect x="60" y="80" width="1480" height="720" rx="36" fill="url(#wall)"/><rect x="120" y="160" width="260" height="240" rx="18" fill="#b8c2c4"/><rect x="430" y="150" width="300" height="150" rx="75" fill="#b68a45"/><circle cx="832" cy="220" r="62" fill="#f4eedd"/><line x1="832" y1="220" x2="872" y2="190" stroke="#9a4e3f" stroke-width="12"/><rect x="980" y="230" width="350" height="190" rx="18" fill="#4b5a56"/><circle cx="1340" cy="340" r="38" fill="#f4eedd"/><rect x="100" y="760" width="1400" height="130" rx="24" fill="#5b4634"/><circle cx="320" cy="700" r="54" fill="#d4c39f"/><rect x="1100" y="610" width="170" height="120" rx="14" fill="#496b68"/><rect x="1140" y="622" width="26" height="96" fill="#2e86ab"/><rect x="520" y="770" width="180" height="52" rx="26" fill="#9a4e3f"/><rect x="680" y="520" width="130" height="130" rx="16" fill="#b68a45"/><rect x="835" y="520" width="130" height="130" rx="16" fill="#b68a45"/><circle cx="1220" cy="438" r="34" fill="#7a927e"/><rect x="134" y="254" width="210" height="36" fill="#f4eedd" opacity=".7"/></svg>
