<svg xmlns="http://www.w3.org/2000/svg" viewBox="0 0 1600 1000"><rect width="1600" height="1000" fill="#ead3a3"/><polyline points="160,820 320,720 512,800 656,670 544,540 736,440 928,550 1104,410 1296,490 1392,320 1216,210 976,150 752,250" fill="none" stroke="#7a4d24" stroke-width="10" stroke-linecap="round" stroke-linejoin="round"/><circle cx="160" cy="820" r="18" fill="#f3cf79" stroke="#5f3b1d" stroke-width="6"/><text x="160" y="826" text-anchor="middle" font-size="18" font-family="Arial" fill="#3d2716">1</text><circle cx="320" cy="720" r="18" fill="#f3cf79" stroke="#5f3b1d" stroke-width="6"/><text x="320" y="726" text-anchor="middle" font-size="18" font-family="Arial" fill="#3d2716">2</text><circle cx="512" cy="800" r="18" fill="#f3cf79" stroke="#5f3b1d" stroke-width="6"/><text x="512" y="806" text-anchor="middle" font-size="18" font-family="Arial" fill="#3d2716">3</text><circle cx="656" cy="670" r="18" fill="#f3cf79" stroke="#5f3b1d" stroke-width="6"/><text x="656" y="676" text-anchor="middle" font-size="18" font-family="Arial" fill="#3d2716">4</text><circle cx="544" cy="540" r="18" fill="#f3cf79" stroke="#5f3b1d" stroke-width="6"/><text x="544" y="546" text-anchor="middle" font-size="18" font-family="Arial" fill="#3d2716">5</text><circle cx="736" cy="440" r="18" fill="#f3cf79" stroke="#5f3b1d" stroke-width="6"/><text x="736" y="446" text-anchor="middle" font-size="18" font-family="Arial" fill="#3d2716">6</text><circle cx="928" cy="550" r="18" fill="#f3cf79" stroke="#5f3b1d" stroke-width="6"/><text x="928" y="556" text-anchor="middle" font-size="18" font-family="Arial" fill="#3d2716">7</text><circle cx="1104" cy="410" r="18" fill="#f3cf79" stroke="#5f3b1d" stroke-width="6"/><text x="1104" y="416" text-anchor="middle" font-size="18" font-family="Arial" fill="#3d2716">8</text><circle cx="1296" cy="490" r="18" fill="#f3cf79" stroke="#5f3b1d" stroke-width="6"/><text x="1296" y="496" text-anchor="middle" font-size="18" font-family="Arial" fill="#3d2716">9</text><circle cx="1392" cy="320" r="18" fill="#f3cf79" stroke="#5f3b1d" stroke-width="6"/><text x="1392" y="326" text-anchor="middle" font-size="18" font-family="Arial" fill="#3d2716">10</text><circle cx="1216" cy="210" r="18" fill="#f3cf79" stroke="#5f3b1d" stroke-width="6"/><text x="1216" y="216" text-anchor="middle" font-size="18" font-family="Arial" fill="#3d2716">11</text><circle cx="976" cy="150" r="18" fill="#f3cf79" stroke="#5f3b1d" stroke-width="6"/><text x="976" y="156" text-anchor="middle" font-size="18" font-family="Arial" fill="#3d2716">12</text><circle cx="752" cy="250" r="18" fill="#f3cf79" stroke="#5f3b1d" stroke-width="6"/><text x="752" y="256" text-anchor="middle" font-size="18" font-family="Arial" fill="#3d2716">13</text></svg>
